<?xml version="1.0" standalone="no"?>
<!DOCTYPE svg PUBLIC "-//W3C//DTD SVG 20010904//EN"
 "http://www.w3.org/TR/2001/REC-SVG-20010904/DTD/svg10.dtd">
<svg version="1.0" xmlns="http://www.w3.org/2000/svg"
 width="584.000000pt" height="488.000000pt" viewBox="0 0 584.000000 488.000000"
 preserveAspectRatio="xMidYMid meet">

<g transform="translate(0.000000,488.000000) scale(0.100000,-0.100000)"
fill="#000000" stroke="none">
<path d="M0 2440 l0 -2440 2920 0 2920 0 0 2440 0 2440 -2920 0 -2920 0 0
-2440z m2815 2356 c18 -13 18 -14 -3 -25 -28 -15 -47 -14 -61 3 -10 11 -8 17
6 25 24 14 36 14 58 -3z m4 -119 c17 -21 -32 -41 -59 -25 -23 15 -25 24 -7 31
24 10 55 7 66 -6z m1 -126 c0 -13 -30 -22 -51 -16 -24 8 -24 21 -2 34 18 10
53 -2 53 -18z m-5 -121 c-3 -5 -13 -10 -21 -10 -8 0 -14 5 -14 10 0 6 9 10 21
10 11 0 17 -4 14 -10z m102 -117 c62 -36 113 -67 113 -70 0 -11 -244 -263
-254 -262 -18 1 -339 193 -342 204 -4 14 338 206 356 199 8 -3 65 -35 127 -71z
m1003 48 c0 -3 -9 -12 -20 -19 -17 -10 -25 -10 -47 1 l-26 14 23 16 c17 12 28
13 46 5 13 -6 24 -14 24 -17z m-12 -84 c17 -20 -22 -41 -48 -27 -23 12 -26 26
-7 33 22 10 44 7 55 -6z m-673 -856 c-13 -13 -17 -13 -35 4 -20 18 -27 45 -12
45 5 0 17 6 27 14 18 13 14 13 -29 9 l-48 -6 -159 159 c-87 87 -159 163 -159
169 0 5 96 106 213 223 l212 212 3 -407 c2 -349 0 -409 -13 -422z m665 769
c13 -8 13 -11 -1 -26 -14 -13 -21 -14 -38 -4 -18 9 -20 14 -10 26 13 16 28 18
49 4z m-3 -117 c-12 -12 -19 -13 -38 -3 -21 12 -22 13 -4 26 13 10 23 10 38 3
17 -10 18 -13 4 -26z m-1339 -155 l172 -100 0 -484 c0 -266 -3 -484 -6 -484
-4 0 -58 30 -120 66 l-114 66 -2 276 c-2 209 -6 276 -15 280 -10 3 -13 -55
-13 -268 l0 -272 -22 14 c-23 15 -23 20 -31 289 -7 268 -8 274 -30 291 -12 10
-25 18 -29 18 -5 0 -8 -40 -8 -90 0 -75 -2 -88 -15 -84 -13 5 -15 50 -15 316
l0 310 38 -22 c20 -12 115 -67 210 -122z m-649 123 c19 -12 5 -31 -23 -31 -29
0 -39 10 -25 27 13 15 28 16 48 4z m1995 -40 c9 -13 -19 -32 -38 -25 -17 6
-20 16 -9 27 9 10 41 9 47 -2z m-1999 -57 c-13 -10 -23 -11 -38 -2 -20 10 -20
11 -2 24 13 10 23 11 38 2 20 -10 20 -11 2 -24z m1993 -33 c10 -6 10 -10 -1
-20 -14 -11 -47 -6 -47 8 0 20 26 27 48 12z m-1989 -20 c11 -7 10 -11 -6 -19
-22 -12 -49 0 -39 17 9 13 26 14 45 2z m2086 -93 c58 -34 105 -65 105 -68 0
-7 -214 -130 -225 -130 -11 0 -225 124 -225 130 0 3 27 21 61 40 33 19 81 47
107 62 26 15 52 27 59 27 7 1 60 -27 118 -61z m-2090 13 c0 -8 -4 -16 -10 -18
-16 -5 -38 14 -30 26 9 16 40 9 40 -8z m5 -72 c0 -16 -31 -22 -43 -10 -9 9 -9
14 2 20 16 10 41 4 41 -10z m1175 -275 c-8 -6 -15 -24 -15 -39 0 -27 1 -27 25
-11 32 21 48 20 69 -3 17 -19 16 -21 -31 -50 -26 -17 -52 -32 -56 -34 -5 -1
-7 -15 -5 -30 l3 -27 69 42 c53 31 73 39 85 31 36 -23 18 -47 -71 -98 -85 -48
-88 -51 -88 -85 0 -33 -10 -46 -94 -128 -51 -51 -98 -92 -105 -92 -6 0 -11 -6
-11 -13 0 -8 -9 -22 -20 -32 -20 -18 -20 -17 -20 421 l0 439 140 -140 c117
-117 138 -142 125 -151z m-1180 207 c3 -6 -3 -14 -12 -20 -16 -9 -14 -10 10
-11 24 0 27 -4 27 -33 0 -29 6 -36 48 -61 45 -26 48 -30 44 -64 -3 -21 -11
-41 -18 -45 -20 -11 -17 -25 6 -32 17 -5 20 -15 20 -60 0 -44 -4 -56 -20 -65
-19 -10 -20 -8 -20 41 0 37 -5 57 -17 69 -17 16 -20 16 -54 -3 l-36 -21 -33
21 c-32 20 -33 20 -51 2 -14 -14 -19 -33 -19 -69 0 -48 -1 -50 -20 -38 -16 10
-20 24 -20 65 0 45 3 53 23 59 12 5 27 7 32 6 6 -1 0 5 -12 15 -14 12 -23 32
-25 57 -3 38 0 41 42 66 36 21 46 32 48 58 2 18 8 32 14 32 5 0 8 6 5 14 -9
24 24 38 38 17z m-94 -51 c10 -6 19 -20 19 -30 0 -24 2 -24 -42 -1 -28 14 -34
21 -25 30 14 14 23 14 48 1z m206 -6 c3 -9 -9 -17 -59 -42 -5 -2 -8 5 -8 17 0
33 57 54 67 25z m2231 -41 c-4 -32 -38 -46 -38 -16 0 20 18 43 33 43 4 0 7
-12 5 -27z m-2577 -34 c22 -11 17 -29 -9 -29 -25 0 -46 16 -38 29 9 14 22 14
47 0z m479 1 c17 -10 16 -12 -27 -34 -32 -16 -33 -16 -33 3 0 11 8 25 18 30
21 13 24 13 42 1z m1370 -51 c0 -17 -3 -18 -20 -9 -11 6 -20 20 -20 31 0 17 3
18 20 9 11 -6 20 -20 20 -31z m168 -1 c7 -7 12 -20 12 -31 0 -30 -34 -16 -38
16 -4 29 6 35 26 15z m-124 -4 c9 -3 16 -15 16 -26 0 -14 -5 -18 -16 -14 -9 3
-18 6 -20 6 -2 0 -4 9 -4 20 0 22 1 23 24 14z m746 -22 c0 -19 -18 -42 -32
-42 -13 0 -9 48 5 53 22 9 27 7 27 -11z m-2779 -3 c16 -8 18 -13 9 -24 -9 -11
-17 -11 -36 -3 -32 15 -30 29 4 37 2 1 12 -4 23 -10z m758 -2 c8 -11 3 -17
-24 -30 -34 -16 -35 -16 -35 3 0 10 8 24 18 29 23 14 28 13 41 -2z m1445 7
c10 -4 16 -18 16 -35 0 -27 -2 -28 -20 -17 -11 7 -20 23 -20 35 0 25 1 26 24
17z m269 -51 c-16 -13 -18 -12 -21 8 -3 14 4 28 15 36 16 13 18 12 21 -8 3
-14 -4 -28 -15 -36z m137 22 c0 -14 -2 -25 -4 -25 -2 0 -11 -3 -20 -6 -12 -5
-16 0 -16 19 0 23 10 34 33 36 4 1 7 -10 7 -24z m-636 9 c9 -3 16 -17 16 -31
0 -19 -4 -24 -16 -19 -9 3 -18 6 -20 6 -2 0 -4 11 -4 25 0 27 1 28 24 19z
m244 -82 c4 -24 -7 -29 -26 -10 -18 18 -15 40 6 36 9 -2 18 -13 20 -26z m492
-38 c-18 -21 -30 -17 -30 11 0 32 34 53 38 24 2 -11 -2 -27 -8 -35z m-284 -10
c-8 -21 -36 -17 -36 6 0 24 33 46 38 24 2 -8 1 -22 -2 -30z m-2427 27 c11 -7
9 -11 -8 -20 -21 -12 -21 -16 -21 -297 0 -224 -3 -285 -12 -282 -19 7 -24 588
-6 600 17 10 30 10 47 -1z m764 -6 c18 -13 18 -14 0 -23 -21 -12 -59 10 -48
27 8 15 26 13 48 -4z m1787 -10 c0 -14 -2 -25 -4 -25 -2 0 -11 -3 -20 -6 -12
-5 -16 0 -16 19 0 23 10 34 33 36 4 1 7 -10 7 -24z m-622 -28 c3 -26 2 -28
-17 -17 -26 13 -29 53 -3 48 10 -2 18 -14 20 -31z m276 17 c10 -4 16 -18 16
-35 0 -27 -2 -28 -20 -17 -11 7 -20 23 -20 35 0 25 1 26 24 17z m269 -51 c-16
-13 -18 -12 -21 8 -3 14 4 28 15 36 16 13 18 12 21 -8 3 -14 -4 -28 -15 -36z
m-375 35 c7 -7 12 -20 12 -31 0 -30 -34 -16 -38 16 -4 29 6 35 26 15z m512
-13 c0 -14 -2 -25 -4 -25 -2 0 -11 -3 -20 -6 -12 -5 -16 0 -16 19 0 23 10 34
33 36 4 1 7 -10 7 -24z m-2471 -24 c11 -7 9 -11 -8 -20 -21 -12 -21 -13 -22
-469 l-1 -457 -19 75 c-16 66 -18 120 -19 467 0 363 1 393 18 402 21 13 33 13
51 2z m482 -7 c20 -24 -8 -36 -38 -17 -18 12 -21 18 -11 24 20 13 34 11 49 -7z
m2157 -21 c-4 -32 -38 -46 -38 -16 0 20 18 43 33 43 4 0 7 -12 5 -27z m-1058
-31 c0 -33 -4 -41 -32 -55 -53 -26 -143 -79 -148 -86 -3 -3 -14 -12 -25 -20
-11 -8 28 34 86 92 58 59 109 107 112 107 4 0 7 -17 7 -38z m270 -18 c0 -22
-2 -23 -20 -14 -12 6 -20 21 -20 36 0 22 2 23 20 14 12 -6 20 -21 20 -36z m87
14 c-3 -8 -6 -5 -6 6 -1 11 2 17 5 13 3 -3 4 -12 1 -19z m203 -25 c0 -33 -24
-25 -28 10 -3 21 0 26 12 21 9 -3 16 -17 16 -31z m1046 22 c16 -13 17 -16 4
-25 -21 -13 -53 -13 -68 2 -10 10 -7 15 10 25 29 16 31 16 54 -2z m-1168 -7
c7 -7 12 -20 12 -31 0 -30 -34 -16 -38 16 -4 29 6 35 26 15z m392 -13 c0 -14
-2 -25 -4 -25 -2 0 -11 -3 -20 -6 -12 -5 -16 0 -16 19 0 23 10 34 33 36 4 1 7
-10 7 -24z m-2280 5 c13 -9 13 -12 -2 -21 -17 -9 -18 -43 -19 -477 l-1 -467
-19 80 c-16 71 -18 124 -19 477 0 368 1 398 18 407 21 13 24 13 42 1z m213 -5
c18 -13 18 -14 0 -23 -21 -12 -59 10 -48 27 8 15 26 13 48 -4z m1437 -1 c0 -2
-7 -4 -15 -4 -8 0 -15 4 -15 10 0 5 7 7 15 4 8 -4 15 -8 15 -10z m114 10 c9
-3 16 -17 16 -31 0 -19 -4 -24 -16 -19 -9 3 -18 6 -20 6 -2 0 -4 11 -4 25 0
27 1 28 24 19z m636 -14 c0 -10 -9 -24 -20 -30 -17 -9 -20 -8 -20 13 0 27 7
37 27 37 7 0 13 -9 13 -20z m-466 -6 c10 -4 16 -18 16 -35 0 -27 -2 -28 -20
-17 -11 7 -20 23 -20 35 0 25 1 26 24 17z m-2803 -15 c16 -8 18 -13 8 -25 -13
-16 -37 -18 -58 -5 -12 8 -12 12 -2 25 16 19 25 20 52 5z m2697 -1 c7 -7 12
-20 12 -31 0 -30 -34 -16 -38 16 -4 29 6 35 26 15z m572 -51 c0 -12 -9 -28
-20 -35 -18 -11 -20 -10 -20 17 0 26 9 38 33 40 4 1 7 -9 7 -22z m670 -8 c0
-19 -65 -26 -76 -7 -12 20 25 38 52 26 13 -6 24 -15 24 -19z m-1620 -7 c0 -12
-49 -46 -165 -112 -102 -59 -165 -101 -165 -111 0 -22 -78 -65 -93 -50 -21 21
74 100 239 197 88 51 165 93 172 94 6 0 12 -8 12 -18z m770 -17 c0 -14 -2 -25
-4 -25 -2 0 -11 -3 -20 -6 -12 -5 -16 0 -16 19 0 23 10 34 33 36 4 1 7 -10 7
-24z m220 -41 c-18 -21 -30 -17 -30 11 0 32 34 53 38 24 2 -11 -2 -27 -8 -35z
m-3308 32 c32 -24 -17 -49 -52 -26 -13 9 -12 12 4 25 24 18 26 18 48 1z m3024
-42 c-8 -21 -36 -17 -36 6 0 24 33 46 38 24 2 -8 1 -22 -2 -30z m-348 -75 c86
-50 160 -94 164 -98 7 -6 -319 -201 -335 -201 -10 0 -332 190 -332 196 0 9
317 193 333 194 7 0 84 -41 170 -91z m1241 72 c19 -12 5 -31 -24 -31 -13 0
-27 5 -31 11 -7 11 12 29 31 29 6 0 16 -4 24 -9z m-709 -26 c0 -14 -2 -25 -4
-25 -2 0 -11 -3 -20 -6 -12 -5 -16 0 -16 19 0 23 10 34 33 36 4 1 7 -10 7 -24z
m-180 -30 c0 -14 -2 -25 -4 -25 -2 0 -11 -3 -20 -6 -12 -5 -16 0 -16 19 0 23
10 34 33 36 4 1 7 -10 7 -24z m103 -32 c-16 -13 -18 -12 -21 8 -3 14 4 28 15
36 16 13 18 12 21 -8 3 -14 -4 -28 -15 -36z m-3128 27 c0 -18 -34 -24 -55 -10
-13 9 -13 11 0 20 21 14 55 8 55 -10z m1525 -23 c0 -13 -5 -17 -16 -13 -9 3
-20 6 -25 6 -5 0 -9 11 -9 25 0 23 2 24 25 13 14 -6 25 -20 25 -31z m1848 6
c-4 -32 -38 -46 -38 -16 0 20 18 43 33 43 4 0 7 -12 5 -27z m541 -12 c19 -12
5 -31 -23 -31 -29 0 -39 10 -25 27 13 15 28 16 48 4z m-2234 -67 l115 -67 0
-249 0 -248 -40 20 -40 20 0 164 0 163 -35 10 -35 11 0 -139 c0 -76 -2 -139
-5 -139 -2 0 -16 5 -30 12 l-25 11 0 138 c0 112 -3 138 -15 143 -12 4 -15 26
-15 111 0 58 2 105 5 105 3 0 57 -30 120 -66z m1585 16 c0 -10 -9 -24 -20 -30
-17 -9 -20 -8 -20 13 0 27 7 37 27 37 7 0 13 -9 13 -20z m-3270 0 c23 -15 -3
-34 -35 -26 -22 6 -25 9 -15 21 14 17 29 19 50 5z m3210 -35 c0 -14 -2 -25 -4
-25 -2 0 -11 -3 -20 -6 -12 -5 -16 0 -16 19 0 23 10 34 33 36 4 1 7 -10 7 -24z
m715 -26 c-10 -15 -55 -11 -55 5 0 8 6 16 13 19 17 6 49 -12 42 -24z m-3926
-32 c13 -16 5 -27 -20 -27 -24 0 -35 20 -18 31 19 12 25 11 38 -4z m1991 -24
l0 -37 -22 22 c-22 21 -22 22 -3 37 11 8 21 15 23 15 1 0 2 -17 2 -37z m265
-86 c210 -123 210 -123 213 -160 2 -20 1 -37 -2 -37 -3 0 -102 57 -220 126
-214 125 -216 126 -216 160 0 19 3 34 8 34 4 -1 102 -56 217 -123z m733 49
c-2 -2 -97 -57 -213 -125 l-210 -121 -3 37 c-2 21 0 39 5 41 4 1 100 56 213
122 l205 119 3 -35 c2 -20 2 -37 0 -38z m102 49 c0 -14 -2 -25 -4 -25 -2 0
-11 -3 -20 -6 -12 -5 -16 0 -16 19 0 23 10 34 33 36 4 1 7 -10 7 -24z m213
-40 c-16 -12 -18 -11 -21 8 -2 12 4 27 15 34 16 12 18 12 21 -7 2 -12 -4 -27
-15 -35z m632 8 c11 -7 30 -13 42 -13 20 0 23 -5 23 -39 0 -36 4 -41 45 -65
25 -15 45 -30 45 -34 0 -7 -183 -112 -195 -112 -11 0 -185 101 -190 111 -3 4
17 20 45 36 49 27 50 29 50 75 0 41 3 48 23 52 66 15 76 14 112 -11z m-785 -8
c0 -14 -2 -25 -4 -25 -2 0 -11 -3 -20 -6 -12 -5 -16 0 -16 19 0 23 10 34 33
36 4 1 7 -10 7 -24z m-1222 -47 c-32 -25 -38 -23 -38 15 0 45 9 51 37 25 l24
-22 -23 -18z m1342 42 c0 -11 -2 -20 -4 -20 -2 0 -11 -3 -20 -6 -11 -4 -16 0
-16 13 0 23 8 33 27 33 7 0 13 -9 13 -20z m-3255 -35 c22 -13 50 -25 63 -25
20 0 22 -5 22 -47 l0 -48 60 -33 c33 -18 60 -34 60 -36 0 -2 -56 -35 -124 -75
l-124 -71 -121 71 c-67 39 -119 74 -116 78 4 3 30 20 58 37 l52 30 3 62 3 62
49 0 c28 0 50 5 50 10 0 16 23 11 65 -15z m2240 -149 l210 -123 3 -38 c3 -28
0 -36 -10 -32 -7 3 -105 59 -218 125 -202 118 -205 120 -208 156 -2 20 0 36 5
36 4 -1 103 -56 218 -124z m735 87 l0 -38 -207 -120 c-114 -66 -211 -122 -216
-124 -4 -2 -7 14 -5 35 l3 39 210 122 c116 68 211 123 213 123 1 0 2 -17 2
-37z m-1000 -7 c0 -30 -5 -37 -46 -60 -26 -14 -48 -26 -50 -26 -2 0 -4 15 -4
34 0 30 6 38 43 60 23 14 45 26 50 26 4 0 7 -15 7 -34z m1220 -6 c0 -10 -9
-24 -20 -30 -17 -9 -20 -8 -20 13 0 27 7 37 27 37 7 0 13 -9 13 -20z m60 -45
c0 -8 -9 -19 -20 -25 -18 -9 -20 -8 -20 15 0 18 5 25 20 25 11 0 20 -7 20 -15z
m-60 -30 c0 -14 -2 -25 -4 -25 -2 0 -11 -3 -20 -6 -12 -5 -16 0 -16 19 0 23
10 34 33 36 4 1 7 -10 7 -24z m-950 -133 c205 -120 205 -120 208 -157 3 -28 0
-36 -10 -32 -7 3 -105 59 -218 124 l-205 120 -3 38 c-3 28 0 36 10 32 7 -3
105 -59 218 -125z m730 91 l0 -38 -206 -120 c-114 -66 -211 -122 -216 -124 -5
-2 -8 14 -6 35 l3 38 210 123 c116 67 211 123 213 123 1 0 2 -17 2 -37z m297
5 c-3 -7 -5 -2 -5 12 0 14 2 19 5 13 2 -7 2 -19 0 -25z m-1297 8 c0 -9 -7 -12
-21 -9 -16 4 -17 8 -7 14 19 13 28 11 28 -5z m1280 -11 c0 -14 -2 -25 -4 -25
-2 0 -11 -3 -20 -6 -12 -5 -16 0 -16 19 0 23 10 34 33 36 4 1 7 -10 7 -24z
m-180 -30 c0 -14 -2 -25 -4 -25 -2 0 -11 -3 -20 -6 -12 -5 -16 0 -16 19 0 23
10 34 33 36 4 1 7 -10 7 -24z m-3555 -31 c19 -12 25 -25 25 -50 0 -39 -2 -40
-35 -18 -19 12 -25 25 -25 50 0 39 2 40 35 18z m915 -18 c0 -25 -6 -38 -25
-50 -33 -22 -35 -21 -35 18 0 23 7 38 23 49 32 23 37 21 37 -17z m2760 29 c0
-2 -9 -9 -20 -15 -16 -9 -20 -8 -20 5 0 8 9 15 20 15 11 0 20 -2 20 -5z m269
-190 l-1 -155 -28 15 c-26 14 -29 19 -29 70 0 35 5 55 12 55 9 0 9 2 0 8 -7 4
-11 41 -11 99 l-1 93 30 -15 29 -15 -1 -155z m899 -134 l0 -318 -24 -12 c-14
-6 -27 -11 -29 -11 -2 0 -4 141 -4 313 l1 313 26 17 c15 9 28 17 29 17 1 0 1
-143 1 -319z m-998 291 c0 -19 -18 -42 -32 -42 -10 0 -11 44 -1 53 13 14 33 7
33 -11z m-1930 -27 c52 -27 75 -55 66 -83 -9 -28 -117 -82 -165 -82 -68 0
-171 61 -171 102 0 18 85 80 125 91 34 9 95 -2 145 -28z m1760 0 c0 -14 -2
-25 -4 -25 -2 0 -11 -3 -20 -6 -12 -5 -16 0 -16 19 0 23 10 34 33 36 4 1 7
-10 7 -24z m-3560 -50 c0 -39 -6 -42 -38 -19 -15 11 -22 25 -22 50 l0 35 30
-16 c25 -13 30 -22 30 -50z m690 -17 c-32 -26 -40 -22 -40 17 0 27 6 37 28 49
27 14 27 14 30 -17 3 -23 -2 -36 -18 -49z m1914 -44 c214 -125 216 -126 216
-160 0 -19 -3 -34 -7 -34 -5 1 -102 56 -218 123 -209 123 -210 123 -213 160
-2 20 -1 37 2 37 3 0 102 -57 220 -126z m736 88 l0 -38 -206 -119 c-114 -66
-211 -122 -216 -124 -5 -2 -8 14 -6 34 3 38 3 38 213 161 116 68 211 123 213
124 1 0 2 -17 2 -38z m565 2 c26 -17 35 -64 13 -64 -9 0 -10 -2 -2 -8 8 -4 12
-50 13 -130 l1 -122 -30 15 -30 15 1 155 c0 85 2 155 5 155 2 0 16 -7 29 -16z
m734 -41 c0 -33 -5 -61 -12 -65 -9 -6 -9 -8 0 -8 17 0 18 -180 1 -180 -10 0
-10 -2 -1 -8 12 -8 17 -282 4 -282 -3 0 -16 3 -28 6 l-23 6 1 283 c0 281 0
282 22 293 35 17 36 15 36 -45z m-4549 -40 c0 -37 0 -37 -35 -21 -20 9 -25 18
-25 50 l0 39 30 -18 c24 -14 30 -24 30 -50z m530 29 c0 -32 -5 -41 -25 -50
-35 -16 -35 -16 -35 21 0 25 7 36 28 49 15 10 28 18 30 18 1 0 2 -17 2 -38z
m2820 3 c0 -14 -2 -25 -4 -25 -2 0 -11 -3 -20 -6 -12 -5 -16 0 -16 19 0 23 10
34 33 36 4 1 7 -10 7 -24z m103 -32 c-16 -13 -18 -12 -21 8 -3 14 4 28 15 36
16 13 18 12 21 -8 3 -14 -4 -28 -15 -36z m67 37 c-19 -13 -30 -13 -30 0 0 6
10 10 23 10 18 0 19 -2 7 -10z m409 -110 c-1 -61 -5 -90 -12 -90 -9 0 -9 -2 0
-8 7 -4 12 -32 12 -65 l0 -57 -29 15 -28 15 -1 155 -1 155 30 -15 30 -16 -1
-89z m520 -145 c0 -169 -4 -265 -10 -265 -6 0 -8 4 -5 9 3 4 -5 6 -19 4 l-23
-5 0 151 c0 108 3 151 11 151 9 0 9 2 1 8 -7 4 -12 40 -12 93 -1 82 0 86 26
102 15 9 28 17 29 17 2 0 3 -119 2 -265z m-4654 239 c19 -12 25 -25 25 -50 0
-39 -2 -40 -35 -18 -19 12 -25 25 -25 50 0 39 2 40 35 18z m915 -18 c0 -25 -6
-38 -25 -50 -33 -22 -35 -21 -35 18 0 23 7 38 23 49 32 23 37 21 37 -17z
m2837 -13 c-3 -10 -5 -4 -5 12 0 17 2 24 5 18 2 -7 2 -21 0 -30z m-3474 3 c11
-8 17 -27 17 -50 l0 -37 -30 18 c-24 14 -30 24 -30 50 0 35 13 41 43 19z m367
-19 c0 -26 -6 -36 -30 -50 l-30 -18 0 39 c0 31 5 41 23 50 34 16 37 15 37 -21z
m1500 -6 c-14 -34 -71 -75 -178 -129 -67 -33 -82 -36 -157 -36 -82 0 -83 0
-186 58 -103 57 -149 94 -149 121 0 10 7 7 23 -8 32 -33 205 -130 217 -122 5
3 10 1 10 -4 0 -12 162 -16 174 -4 3 4 16 8 28 10 35 5 168 86 197 119 31 37
38 35 21 -5z m1588 14 c-4 -17 -1 -25 8 -25 8 0 14 -6 14 -14 0 -7 11 -21 24
-29 21 -14 26 -14 36 -2 18 22 30 18 30 -9 0 -14 5 -28 10 -31 24 -15 5 -36
-71 -79 -45 -25 -86 -46 -92 -46 -6 0 -48 21 -94 48 -71 40 -83 51 -83 73 0
29 28 48 41 27 5 -9 11 -4 18 13 12 32 38 44 44 21 3 -10 5 -7 6 9 1 30 36 46
58 27 10 -8 13 -6 13 9 0 23 8 33 28 33 10 0 13 -8 10 -25z m490 -172 c1 -84
-3 -153 -6 -153 -4 0 -17 7 -29 15 -20 14 -21 23 -21 170 l-1 155 29 -16 28
-17 0 -154z m341 -43 c0 -209 -2 -230 -17 -230 -39 1 -40 10 -40 221 l0 205
26 17 c15 9 28 17 29 17 1 0 2 -103 2 -230z m-4474 204 c19 -12 25 -25 25 -50
0 -38 -6 -41 -38 -18 -15 11 -22 25 -22 50 0 39 2 40 35 18z m715 -66 c-32
-26 -40 -22 -40 17 0 27 6 37 28 49 27 14 27 14 30 -17 3 -23 -2 -36 -18 -49z
m1918 -47 c210 -122 212 -123 212 -157 0 -19 -3 -34 -7 -34 -5 0 -102 56 -218
123 l-210 123 -3 38 c-2 21 1 37 6 35 4 -2 104 -60 220 -128z m732 91 l0 -38
-210 -122 c-115 -67 -213 -122 -216 -122 -3 0 -4 16 -2 36 3 36 6 38 213 159
116 68 211 124 213 124 1 1 2 -16 2 -37z m97 1 c-3 -10 -5 -4 -5 12 0 17 2 24
5 18 2 -7 2 -21 0 -30z m63 28 c0 -5 -7 -12 -16 -15 -22 -9 -24 -8 -24 9 0 8
9 15 20 15 11 0 20 -4 20 -9z m-3220 -86 c0 -39 -6 -42 -38 -19 -15 11 -22 25
-22 50 l0 35 30 -16 c25 -13 30 -22 30 -50z m150 27 c0 -32 -5 -41 -25 -50
-35 -16 -35 -16 -35 21 0 25 7 36 28 49 15 10 28 18 30 18 1 0 2 -17 2 -38z
m-340 -47 c0 -39 -6 -42 -38 -19 -15 11 -22 25 -22 50 l0 35 30 -16 c25 -13
30 -22 30 -50z m530 27 c0 -32 -5 -41 -25 -50 -35 -16 -35 -16 -35 21 0 25 7
36 28 49 15 10 28 18 30 18 1 0 2 -17 2 -38z m3554 27 l24 -11 1 -244 c0 -206
-2 -244 -15 -244 -11 0 -14 19 -14 95 0 75 -3 97 -15 101 -12 5 -14 33 -14
160 0 85 2 154 4 154 2 0 15 -5 29 -11z m185 -174 c0 -102 -5 -187 -10 -191
-5 -3 -18 -3 -28 1 -18 6 -20 17 -20 179 0 168 1 174 22 184 12 6 25 11 29 11
5 1 8 -82 7 -184z m-2199 135 c0 -55 -47 -103 -165 -171 -124 -71 -178 -90
-265 -96 -112 -8 -167 8 -309 89 -154 88 -181 113 -181 165 l0 38 19 -31 c22
-36 44 -52 156 -116 44 -25 98 -56 120 -69 36 -21 52 -24 156 -24 l116 0 94
47 c155 78 218 123 237 168 10 22 18 40 20 40 1 0 2 -18 2 -40z m-2272 4 c15
-11 22 -25 22 -50 0 -39 -2 -40 -35 -18 -19 12 -25 25 -25 50 0 38 6 41 38 18z
m912 -18 c0 -25 -6 -38 -25 -50 -33 -22 -35 -21 -35 18 0 23 7 38 23 49 32 23
37 21 37 -17z m-637 -10 c11 -8 17 -27 17 -50 l0 -37 -30 18 c-24 14 -30 24
-30 50 0 35 13 41 43 19z m367 -19 c0 -26 -6 -36 -30 -50 l-30 -18 0 39 c0 31
5 41 23 50 34 16 37 15 37 -21z m-555 -3 c19 -12 25 -25 25 -50 0 -38 -6 -41
-38 -18 -15 11 -22 25 -22 50 0 39 2 40 35 18z m715 -66 c-32 -26 -40 -22 -40
17 0 27 6 37 28 49 27 14 27 14 30 -17 3 -23 -2 -36 -18 -49z m1918 -48 c210
-121 212 -123 212 -156 0 -19 -3 -34 -7 -34 -5 0 -102 55 -218 123 l-210 122
-3 39 c-2 21 0 36 5 34 4 -3 104 -60 221 -128z m731 106 c-2 -2 -84 -49 -181
-106 -160 -92 -178 -106 -178 -129 0 -19 -9 -32 -29 -44 -39 -23 -41 -22 -41
17 0 34 2 35 213 158 116 69 214 121 216 116 1 -5 1 -11 0 -12z m-3059 -71 c0
-39 -6 -42 -38 -19 -15 11 -22 25 -22 50 l0 35 30 -16 c25 -13 30 -22 30 -50z
m150 27 c0 -32 -5 -41 -25 -50 -35 -16 -35 -16 -35 21 0 25 7 36 28 49 15 10
28 18 30 18 1 0 2 -17 2 -38z m-340 -47 c0 -39 -6 -42 -38 -19 -15 11 -22 25
-22 50 l0 35 30 -16 c25 -13 30 -22 30 -50z m530 27 c0 -32 -5 -41 -25 -50
-35 -16 -35 -16 -35 21 0 25 7 36 28 49 15 10 28 18 30 18 1 0 2 -17 2 -38z
m676 -33 c10 -9 74 -48 141 -87 147 -85 210 -101 321 -82 81 14 123 32 247
105 64 38 105 69 125 97 l30 41 0 -38 c0 -75 -56 -125 -249 -222 l-93 -48
-117 0 c-132 0 -130 -1 -310 103 -124 72 -151 101 -151 167 l0 40 19 -30 c10
-16 27 -37 37 -46z m-1408 25 c15 -11 22 -25 22 -50 0 -39 -2 -40 -35 -18 -19
12 -25 25 -25 50 0 38 6 41 38 18z m912 -18 c0 -25 -6 -38 -25 -50 -33 -22
-35 -21 -35 18 0 23 7 38 23 49 32 23 37 21 37 -17z m-637 -10 c10 -8 17 -27
17 -49 l0 -36 -30 17 c-24 13 -30 24 -30 50 0 34 13 40 43 18z m367 -19 c0
-26 -6 -36 -30 -50 l-30 -18 0 37 c0 23 6 42 18 50 29 22 42 16 42 -19z m-555
-3 c19 -12 25 -25 25 -50 0 -39 -2 -40 -35 -18 -19 12 -25 25 -25 50 0 39 2
40 35 18z m735 -18 c0 -25 -7 -39 -22 -50 -32 -23 -38 -20 -38 18 0 23 7 38
23 49 32 23 37 21 37 -17z m1898 -96 c212 -123 212 -123 212 -157 0 -29 -3
-34 -17 -28 -10 3 -109 59 -220 123 l-202 117 -1 38 c0 21 3 36 8 34 4 -2 103
-59 220 -127z m-2328 35 c0 -39 -6 -42 -38 -19 -15 11 -22 25 -22 50 l0 35 30
-16 c25 -13 30 -22 30 -50z m150 27 c0 -32 -5 -41 -25 -50 -35 -16 -35 -16
-35 21 0 25 7 36 28 49 15 10 28 18 30 18 1 0 2 -17 2 -38z m1712 -81 c-46
-64 -264 -182 -371 -201 -116 -21 -188 -5 -324 71 -62 34 -113 66 -115 71 -2
4 -10 8 -17 8 -7 0 -27 16 -44 35 -25 29 -31 44 -31 83 l1 47 13 -30 c18 -41
32 -52 174 -134 146 -84 184 -96 300 -88 77 4 95 10 176 51 143 72 212 121
233 165 l18 38 3 -45 c2 -33 -2 -53 -16 -71z m-2052 34 c0 -39 -6 -42 -38 -19
-15 11 -22 25 -22 50 l0 35 30 -16 c25 -13 30 -22 30 -50z m530 27 c0 -32 -5
-41 -25 -50 -35 -16 -35 -16 -35 21 0 25 7 36 28 49 15 10 28 18 30 18 1 0 2
-17 2 -38z m2713 4 c13 -10 17 -28 17 -75 l0 -61 -30 0 -30 0 0 75 c0 78 7 88
43 61z m527 -61 l0 -75 -30 0 -30 0 0 61 c0 47 4 65 18 75 35 27 42 17 42 -61z
m-3972 49 c15 -11 22 -25 22 -50 0 -39 -2 -40 -35 -18 -19 12 -25 25 -25 50 0
38 6 41 38 18z m912 -18 c0 -25 -6 -38 -25 -50 -33 -22 -35 -21 -35 18 0 23 7
38 23 49 32 23 37 21 37 -17z m-637 -10 c10 -8 17 -27 17 -49 l0 -36 -30 17
c-24 13 -30 24 -30 50 0 34 13 40 43 18z m367 -19 c0 -26 -6 -36 -30 -50 l-30
-18 0 37 c0 23 6 42 18 50 29 22 42 16 42 -19z m2885 11 c23 -10 25 -16 25
-75 l0 -63 -30 0 -30 0 0 75 c0 41 2 75 5 75 2 0 16 -5 30 -12z m355 -58 c0
-68 -1 -70 -25 -70 -24 0 -25 3 -25 60 0 46 4 61 18 69 29 18 32 13 32 -59z
m-3795 44 c19 -12 25 -25 25 -50 0 -39 -2 -40 -35 -18 -19 12 -25 25 -25 50 0
39 2 40 35 18z m735 -18 c0 -25 -7 -39 -22 -50 -32 -23 -38 -20 -38 18 0 23 7
38 23 49 32 23 37 21 37 -17z m1901 -98 c206 -121 209 -123 209 -156 0 -22 -4
-32 -13 -30 -7 2 -106 57 -220 123 -202 117 -207 121 -207 153 0 17 5 32 11
32 6 0 105 -55 220 -122z m-2331 37 c0 -39 -6 -42 -38 -19 -15 11 -22 25 -22
50 l0 35 30 -16 c25 -13 30 -22 30 -50z m148 0 c-9 -9 -58 9 -58 21 0 7 12 20
28 28 26 14 27 14 30 -16 2 -16 2 -31 0 -33z m1717 -45 c-18 -35 -95 -87 -231
-156 -86 -44 -98 -47 -187 -52 -56 -3 -115 0 -141 7 -50 12 -292 149 -321 181
-11 12 -20 41 -22 72 l-5 53 19 -34 c19 -37 132 -110 273 -179 69 -34 82 -37
160 -36 109 0 141 10 275 85 118 65 172 109 183 149 6 21 7 19 10 -17 2 -25
-4 -55 -13 -73z m1360 84 c21 -14 25 -24 25 -70 0 -53 0 -54 -30 -54 l-30 0 0
70 c0 39 2 70 5 70 3 0 17 -7 30 -16z m175 -54 c0 -68 -1 -70 -25 -70 -24 0
-25 3 -25 56 0 42 4 60 18 70 29 22 32 17 32 -56z m-3590 -5 c0 -39 -6 -42
-38 -19 -15 11 -22 25 -22 50 l0 35 30 -16 c25 -13 30 -22 30 -50z m510 -17
c-32 -26 -40 -22 -40 17 0 27 6 37 28 49 27 14 27 14 30 -17 3 -23 -2 -36 -18
-49z m600 -148 c0 -208 0 -211 -20 -200 -19 10 -20 21 -20 186 0 144 3 179 16
199 9 14 18 25 20 25 2 0 4 -95 4 -210z m-1312 184 c15 -11 22 -25 22 -50 l0
-35 -30 16 c-25 13 -30 22 -30 50 0 39 6 42 38 19z m912 -18 c0 -25 -6 -38
-25 -50 -33 -22 -35 -21 -35 18 0 25 7 39 22 50 32 23 38 20 38 -18z m2180 -6
c0 -34 -4 -42 -30 -55 -39 -20 -40 -20 -40 19 0 28 6 38 33 54 17 11 33 21 35
21 1 1 2 -17 2 -39z m-2817 -4 c10 -8 17 -27 17 -49 l0 -36 -30 17 c-24 13
-30 24 -30 50 0 34 13 40 43 18z m367 -21 c0 -37 -2 -38 -37 -29 -27 8 -30 32
-5 50 29 23 42 16 42 -21z m530 -140 c0 -164 -1 -175 -20 -185 -20 -11 -20 -8
-20 155 0 158 7 205 30 205 6 0 10 -69 10 -175z m-1085 139 c19 -12 25 -25 25
-50 0 -39 -2 -40 -35 -18 -19 12 -25 25 -25 50 0 39 2 40 35 18z m735 -18 c0
-25 -6 -38 -25 -50 -33 -22 -35 -21 -35 18 0 23 7 38 23 49 32 23 37 21 37
-17z m1900 -98 c207 -121 210 -123 210 -156 0 -23 -4 -32 -14 -30 -7 2 -106
57 -220 123 -201 117 -206 121 -206 153 0 17 5 32 10 32 6 0 105 -55 220 -122z
m-464 -4 c-14 -20 -20 -22 -39 -13 -20 9 -47 -3 -208 -96 l-184 -107 -67 5
c-75 6 -113 23 -274 118 -109 66 -134 94 -134 156 l0 38 19 -31 c23 -37 40
-50 196 -140 l120 -69 115 0 c109 0 119 2 184 32 169 81 273 159 278 210 1 10
3 -4 5 -30 3 -33 -1 -57 -11 -73z m-1866 41 c0 -39 -6 -42 -38 -19 -15 11 -22
25 -22 50 l0 35 30 -16 c25 -13 30 -22 30 -50z m-190 -20 c0 -39 -6 -42 -38
-19 -15 11 -22 25 -22 50 l0 35 30 -16 c25 -13 30 -22 30 -50z m527 0 c-3 -8
-15 -11 -31 -8 -35 7 -34 38 2 57 26 14 27 13 30 -11 2 -13 1 -31 -1 -38z
m-729 19 c15 -11 22 -25 22 -50 l0 -35 -30 16 c-25 13 -30 22 -30 50 0 39 6
42 38 19z m912 -18 c0 -25 -6 -38 -25 -50 -33 -22 -35 -21 -35 18 0 25 7 39
22 50 32 23 38 20 38 -18z m2180 -1 c0 -33 -2 -35 -35 -35 -45 0 -46 21 -2 48
17 11 33 21 35 21 1 1 2 -15 2 -34z m215 9 l25 -16 0 -573 0 -573 -22 -6 c-13
-3 -29 -6 -35 -6 -10 0 -13 126 -13 595 0 403 3 595 10 595 6 0 22 -7 35 -16z
m805 -159 l0 -175 -35 0 -35 0 0 159 c0 153 1 159 23 174 46 33 47 28 47 -158z
m729 20 l0 -145 -29 0 -29 0 0 130 c1 121 2 131 22 145 12 8 25 15 29 15 4 0
7 -65 7 -145z m-4566 121 c10 -8 17 -27 17 -49 l0 -36 -30 17 c-24 13 -30 24
-30 50 0 34 13 40 43 18z m-188 -22 c19 -12 25 -25 25 -50 0 -39 -2 -40 -35
-18 -19 12 -25 25 -25 50 0 39 2 40 35 18z m733 -21 c-3 -33 -7 -38 -30 -41
-24 -3 -28 0 -28 21 0 22 31 55 53 56 5 1 7 -16 5 -36z m1906 -98 l206 -120 0
-38 0 -37 -48 27 c-424 246 -392 224 -392 261 0 23 4 32 14 30 7 -2 106 -57
220 -123z m-457 93 c-3 -8 -6 -5 -6 6 -1 11 2 17 5 13 3 -3 4 -12 1 -19z
m2483 -8 c0 -17 -5 -30 -12 -30 -10 0 -10 -2 -2 -8 7 -4 12 -39 12 -89 l0 -83
-28 0 -28 0 -1 104 c-2 98 0 105 21 120 32 22 38 20 38 -14z m-4360 -45 c0
-39 -6 -42 -38 -19 -15 11 -22 25 -22 50 l0 35 30 -16 c25 -13 30 -22 30 -50z
m3030 50 l30 -16 0 -534 0 -535 -35 0 -35 0 0 550 c0 303 2 550 5 550 4 0 19
-7 35 -15z m570 -125 l0 -140 -35 0 -35 0 0 125 0 124 28 15 c15 8 30 15 35
16 4 0 7 -63 7 -140z m-2576 57 c18 -12 26 -26 26 -47 0 -39 -14 -38 -56 4
-28 28 -34 41 -34 77 l0 44 19 -30 c10 -17 30 -39 45 -48z m-1214 -2 c0 -39
-6 -42 -38 -19 -15 11 -22 25 -22 50 l0 35 30 -16 c25 -13 30 -22 30 -50z
m530 55 c0 -5 -5 -10 -11 -10 -5 0 -7 5 -4 10 3 6 8 10 11 10 2 0 4 -4 4 -10z
m3920 -100 l0 -90 -30 0 c-16 0 -30 5 -30 10 0 6 6 10 13 10 9 0 9 2 1 8 -7 4
-12 32 -13 62 0 50 3 57 27 72 15 9 28 17 30 17 1 1 2 -39 2 -89z m-4652 64
c15 -11 22 -25 22 -50 l0 -35 -30 16 c-25 13 -30 22 -30 50 0 39 6 42 38 19z
m910 -21 c-3 -33 -6 -38 -28 -38 -34 0 -39 37 -8 59 33 24 40 20 36 -21z
m2662 -513 l0 -500 -30 0 -30 0 0 515 0 516 30 -16 30 -16 0 -499z m300 425
l0 -105 -35 0 -35 0 0 90 c0 87 1 90 28 104 15 8 30 15 35 16 4 0 7 -47 7
-105z m-3597 81 c10 -8 17 -27 17 -49 l0 -36 -30 17 c-24 13 -30 24 -30 50 0
34 13 40 43 18z m1993 -21 c35 -20 66 -40 69 -45 3 -5 -26 -27 -65 -50 -49
-29 -70 -47 -70 -60 0 -11 -6 -20 -12 -20 -23 1 -93 56 -96 75 -2 11 -13 27
-24 36 -20 16 -19 17 48 57 38 23 73 41 78 42 5 0 37 -16 72 -35z m2067 16
c15 -8 27 -20 27 -28 0 -16 -5 -16 -30 -3 -19 10 -51 56 -33 48 4 -2 20 -10
36 -17z m-4248 -17 c19 -12 25 -25 25 -50 0 -39 -2 -40 -35 -18 -19 12 -25 25
-25 50 0 39 2 40 35 18z m4475 -44 c0 -59 0 -60 -29 -60 -27 0 -29 2 -29 45
-1 35 3 48 21 60 12 8 25 15 29 15 5 0 8 -27 8 -60z m-2987 -15 c51 -30 108
-58 126 -61 l32 -7 -35 -23 c-19 -13 -37 -24 -41 -24 -3 0 -46 23 -95 51 -86
49 -90 53 -90 85 0 19 2 34 4 34 3 0 47 -25 99 -55z m-1208 29 c19 -12 25 -25
25 -50 0 -38 -6 -41 -38 -18 -15 11 -22 25 -22 50 0 39 2 40 35 18z m1075
-106 c0 -22 -9 -23 -40 -2 -38 26 -50 45 -50 81 l0 33 45 -47 c25 -25 45 -55
45 -65z m-1265 86 c19 -12 25 -25 25 -50 0 -38 -6 -41 -38 -18 -15 11 -22 25
-22 50 0 39 2 40 35 18z m4295 -17 c0 -29 -3 -33 -30 -35 -24 -2 -30 2 -30 17
0 17 34 49 53 50 4 1 7 -14 7 -32z m-162 -50 c2 -46 0 -57 -13 -57 -12 0 -15
13 -15 61 0 81 24 77 28 -4z m-4310 37 c15 -11 22 -25 22 -50 l0 -35 -30 16
c-25 13 -30 22 -30 50 0 39 6 42 38 19z m275 -28 c10 -8 17 -27 17 -49 l0 -36
-30 17 c-24 13 -30 24 -30 50 0 34 13 40 43 18z m-188 -22 c19 -12 25 -25 25
-50 0 -39 -2 -40 -35 -18 -19 12 -25 25 -25 50 0 39 2 40 35 18z m280 -30 c19
-12 25 -25 25 -50 0 -38 -6 -41 -38 -18 -15 11 -22 25 -22 50 0 39 2 40 35 18z
m1283 -66 c15 -8 22 -20 22 -40 l0 -29 -42 26 c-24 14 -58 34 -75 42 -26 13
-33 23 -33 45 l0 28 53 -30 c28 -17 62 -36 75 -42z m-1473 46 c19 -12 25 -25
25 -50 0 -38 -6 -41 -38 -18 -15 11 -22 25 -22 50 0 39 2 40 35 18z m1085 -9
c22 -14 46 -25 55 -25 11 0 15 -11 15 -40 0 -38 3 -41 55 -71 30 -17 55 -32
55 -34 0 -2 -51 -33 -114 -69 l-115 -67 -110 63 c-61 35 -110 66 -111 70 0 4
25 22 55 40 l55 33 0 52 c0 58 4 61 108 72 7 0 30 -10 52 -24z m1621 -22 c45
-26 49 -31 49 -66 l0 -39 -52 31 c-47 26 -53 34 -56 65 -2 20 0 36 3 36 4 0
29 -12 56 -27z m-2883 1 c15 -11 22 -25 22 -50 l0 -35 -30 16 c-25 13 -30 22
-30 50 0 39 6 42 38 19z m273 -24 c14 -8 19 -21 19 -51 l0 -40 -30 21 c-22 15
-30 30 -30 51 0 31 10 35 41 19z m-183 -26 c15 -11 22 -25 22 -50 0 -39 -2
-40 -35 -18 -19 12 -25 25 -25 50 0 38 6 41 38 18z m277 -30 c19 -12 25 -25
25 -50 0 -39 -2 -40 -35 -18 -19 12 -25 25 -25 50 0 39 2 40 35 18z m-190 -20
c19 -12 25 -25 25 -50 0 -39 -2 -40 -35 -18 -19 12 -25 25 -25 50 0 39 2 40
35 18z m1665 -482 l0 -464 -22 6 c-13 3 -29 6 -35 6 -10 0 -13 102 -13 475 l0
475 35 -17 35 -17 0 -464z m768 232 c-2 -1 -15 -5 -31 -9 l-27 -7 0 126 0 125
28 15 27 14 3 -130 c1 -72 1 -132 0 -134z m272 219 c27 -16 50 -31 50 -35 0
-8 -79 32 -98 50 -21 19 -6 14 48 -15z m-2882 1 c16 -11 22 -25 22 -50 l0 -35
-30 18 c-24 14 -30 24 -30 50 0 37 6 40 38 17z m273 -24 c13 -8 19 -21 19 -45
0 -39 -6 -42 -38 -19 -14 10 -22 25 -22 45 0 31 9 35 41 19z m1687 -478 c2
-350 0 -442 -10 -442 -7 0 -23 3 -35 6 l-23 6 0 455 0 455 33 -19 32 -19 3
-442z m530 242 c-2 -1 -15 -5 -31 -9 l-27 -7 0 109 c0 108 0 108 28 125 l27
17 3 -116 c1 -64 1 -117 0 -119z m-2400 210 c15 -11 22 -25 22 -50 0 -39 -2
-40 -35 -18 -19 12 -25 25 -25 50 0 38 6 41 38 18z m277 -30 c19 -12 25 -25
25 -50 0 -39 -2 -40 -35 -18 -19 12 -25 25 -25 50 0 39 2 40 35 18z m-190 -20
c19 -12 25 -25 25 -50 0 -39 -2 -40 -35 -18 -19 12 -25 25 -25 50 0 39 2 40
35 18z m2188 -195 c-4 -4 -20 -11 -35 -14 l-28 -7 0 90 0 90 33 21 32 20 3
-96 c1 -53 -1 -100 -5 -104z m-305 175 l22 -15 0 -421 0 -420 -22 6 c-13 3
-29 6 -35 6 -10 0 -13 93 -13 430 0 459 -1 449 48 414z m-2063 -6 c20 -9 25
-18 25 -50 l0 -39 -30 18 c-24 14 -30 24 -30 50 0 37 0 37 35 21z m990 -143
c120 -71 224 -128 230 -128 5 0 111 59 235 132 124 72 227 126 229 120 1 -5 1
-12 0 -14 -21 -20 -458 -265 -470 -263 -31 6 -459 262 -459 276 0 7 3 11 8 9
4 -2 106 -62 227 -132z m-714 115 c13 -8 19 -21 19 -45 0 -39 -6 -42 -38 -19
-14 10 -22 25 -22 45 0 31 9 35 41 19z m-183 -26 c15 -11 22 -25 22 -50 l0
-35 -30 16 c-25 13 -30 22 -30 50 0 39 6 42 38 19z m277 -30 c19 -12 25 -25
25 -50 0 -39 -2 -40 -35 -18 -19 12 -25 25 -25 50 0 39 2 40 35 18z m-190 -20
c19 -12 25 -25 25 -50 0 -39 -2 -40 -35 -18 -19 12 -25 25 -25 50 0 39 2 40
35 18z m-180 -26 c19 -9 25 -19 25 -45 0 -35 -13 -41 -42 -19 -11 8 -18 26
-18 45 0 35 0 35 35 19z m276 -28 c13 -8 19 -21 19 -45 0 -39 -6 -42 -38 -19
-14 10 -22 25 -22 45 0 31 9 35 41 19z m-183 -26 c34 -23 29 -54 -8 -54 -28 0
-30 3 -30 35 0 39 6 42 38 19z m975 -178 c130 -76 151 -85 170 -75 23 12 356
206 415 241 26 16 32 17 32 5 0 -14 -442 -280 -465 -280 -22 0 -465 265 -465
279 0 9 28 -3 83 -35 45 -26 149 -87 230 -135z m-698 148 c15 -10 25 -26 25
-40 0 -21 -2 -22 -30 -13 -24 9 -30 17 -30 40 0 34 2 34 35 13z m-185 -24 c14
-10 21 -22 17 -26 -10 -10 -57 17 -57 33 0 18 10 16 40 -7z m-185 -22 c27 -12
36 -34 9 -24 -9 3 -22 6 -30 6 -8 0 -14 7 -14 15 0 18 2 18 35 3z m4343 -44
c12 -8 22 -22 22 -30 0 -12 -6 -11 -30 6 -28 20 -39 40 -22 40 4 0 18 -7 30
-16z m-2664 -74 c-9 -9 -454 -270 -460 -270 -7 0 -440 254 -453 266 -8 8 -12
16 -9 20 4 3 107 -53 231 -125 123 -72 228 -131 233 -130 5 0 110 60 234 133
124 73 227 128 229 123 2 -5 -1 -13 -5 -17z m-693 -281 c123 -71 231 -128 240
-126 9 2 114 61 232 131 119 69 219 126 222 126 3 0 5 -6 5 -12 -1 -10 -372
-234 -450 -272 -14 -6 -71 22 -249 125 -127 74 -231 140 -231 147 0 6 2 12 4
12 2 0 104 -59 227 -131z m4 -174 c120 -71 224 -128 230 -128 5 0 111 59 235
132 124 72 227 126 229 120 1 -5 1 -12 0 -14 -21 -20 -458 -265 -470 -263 -31
6 -459 262 -459 276 0 7 3 11 8 9 4 -2 106 -62 227 -132z"/>
</g>
</svg>
