<svg width="132" height="134" viewBox="0 0 132 134" fill="none" xmlns="http://www.w3.org/2000/svg">
<path fill-rule="evenodd" clip-rule="evenodd" d="M65.2722 0L0 66.4099L65.2722 133.59L132 65.8825L65.2722 0ZM67.7016 7.95094L125.048 65.0172L80.7398 52.9089L67.7016 7.95094ZM8.81137 62.5607L41.6988 42.8439L62.5607 7.93024L8.81137 62.5607ZM53.4286 81.6886L86.3932 90.4343L65.2884 126.391L53.4286 81.6886ZM63.4424 126.305L8.43915 69.7526L51.4672 81.1682L63.4424 126.305ZM64.2377 129.303L64.0419 129.502L64.2908 129.503L64.2377 129.303ZM124.975 66.5558L90.1751 86.6621L81.3216 54.855L124.975 66.5558ZM77.3681 53.7954L86.5642 86.8333L52.3878 77.766L43.629 44.7519L77.3681 53.7954ZM119.366 74.0039L72.2533 121.597L89.999 91.1392L119.366 74.0039ZM6.60474 65.64L50.453 77.2712L41.939 44.8072L6.60474 65.64ZM76.8926 51.8713L64.5451 7.74158L43.7342 42.9591L76.8926 51.8713Z" fill="url(#paint0_linear)"/>
<defs>
<linearGradient id="paint0_linear" x1="-7.83585" y1="54.0861" x2="55.2087" y2="137.776" gradientUnits="userSpaceOnUse">
<stop stop-color="#0CCBEC"/>
<stop offset="1" stop-color="#A28BE9"/>
</linearGradient>
</defs>
</svg>
